<?xml version="1.0" encoding="UTF-8" standalone="no"?>
<svg xmlns:svg="http://www.w3.org/2000/svg" version="1.1" viewBox="0 0 100 100" height="100" width="100">
   <defs id="defs867" />
   <polygon transform="matrix(1.0099874,0,0,1.0099874,-1.3789082,-1.5480445)" points="51.534,59.769 51.534,94.882 18.065,74.014 18.065,38.899 " id="polygon845" style="clip-rule:evenodd;fill:#e15343;fill-rule:evenodd;stroke-width:0.99011135" />
   <path d="M 46.523784,18.523435 18.01487,36.136605 51.817128,57.214032 80.326043,39.600862 Z m -7.768823,6.877004 7.045672,-4.492424 30.46728,18.692847 -7.044662,4.492424 z" id="path847" style="clip-rule:evenodd;fill:#e15343;fill-rule:evenodd;stroke-width:1" />
   <polygon transform="matrix(1.0099874,0,0,1.0099874,-1.3789082,-1.5480445)" points="53.836,59.886 53.836,95 81.935,77.443 81.935,42.328 " id="polygon849" style="clip-rule:evenodd;fill:#e15343;fill-rule:evenodd;stroke-width:0.99011135" />
   <polygon transform="matrix(1.0099874,0,0,1.0099874,-1.3789082,-1.5480445)" style="clip-rule:evenodd;fill:#e15343;fill-rule:evenodd;stroke-width:0.99011135" id="polygon851" points="63.094,14.983 46.557,5 46.557,26.956 71.462,42.064 71.462,31.061 62.889,26.3 " />
   <polygon transform="matrix(1.0099874,0,0,1.0099874,-1.3789082,-1.5480445)" style="clip-rule:evenodd;fill:#e15343;fill-rule:evenodd;stroke-width:0.99011135" id="polygon853" points="64.485,25.144 71.236,29.239 64.485,15.855 " />
</svg>
